<svg xmlns="http://www.w3.org/2000/svg" viewBox="0 0 380 210" width="380" height="210" role="img" aria-label="mojave-run — wasteland arcade driver">
  <style>
    text { font-family:'Segoe UI',Helvetica,Arial,sans-serif; }
    .dash { stroke-dasharray: 18 22; animation: road 0.7s linear infinite; }
    @keyframes road { to { stroke-dashoffset: -40; } }
    .car { animation: car 2.6s ease-in-out infinite; }
    @keyframes car { 0%,100% {transform:translateY(0);} 25% {transform:translateY(-2.5px);} 60% {transform:translateY(1.5px);} }
    .dust { animation: dust 1.1s ease-out infinite; }
    .dust.b{animation-delay:.4s} .dust.c{animation-delay:.8s}
    @keyframes dust { 0% {transform:translateX(0); opacity:.8;} 100% {transform:translateX(-22px); opacity:0;} }
    .heat { animation: heat 3s ease-in-out infinite; }
    @keyframes heat { 0%,100% {opacity:.25;} 50% {opacity:.6;} }
    .score { animation: score 1s steps(1,end) infinite; }
    @keyframes score { 0%,49% {opacity:1;} 50%,100% {opacity:.55;} }
    .go { animation: go 2.4s ease-in-out infinite; }
    @keyframes go { 0%,100% {opacity:.6;} 50% {opacity:1;} }
  </style>
  <defs>
    <clipPath id="w6"><rect width="380" height="210" rx="12"/></clipPath>
    <linearGradient id="dsky" x1="0" y1="0" x2="0" y2="1">
      <stop offset="0" stop-color="#141B2E"/><stop offset="1" stop-color="#1E2A4A"/>
    </linearGradient>
  </defs>
  <g clip-path="url(#w6)">
    <rect width="380" height="210" fill="#161C26"/>
    <rect width="380" height="30" fill="#1B2230"/>
    <rect y="29" width="380" height="1" fill="#2B3648"/>
    <circle cx="18" cy="15" r="5" fill="#FF5F57"/><circle cx="35" cy="15" r="5" fill="#FEBC2E"/><circle cx="52" cy="15" r="5" fill="#28C840"/>
    <text x="190" y="20" font-size="12" fill="#7C8798" text-anchor="middle">Mojave Run.app</text>

    <text x="22" y="66" font-size="20" font-weight="800" fill="#F1F5FB">mojave-run</text>
    <text x="22" y="90" font-size="12.5" fill="#9AA6B8">A wasteland arcade driver built</text>
    <text x="22" y="108" font-size="12.5" fill="#9AA6B8">for the browser. Survive the Mojave.</text>
    <rect x="22" y="128" width="106" height="22" rx="11" fill="#1B2230" stroke="#2B3648"/>
    <text x="34" y="143" font-size="11" fill="#F6AD55" font-weight="700">🎮 SIDE-QUEST</text>
    <text class="go" x="22" y="186" font-size="13" font-weight="700" fill="#F6AD55">Insert coin ▸</text>

    <!-- motif: desert scene, moving road, bouncing car -->
    <g>
      <rect x="224" y="46" width="140" height="140" rx="10" fill="url(#dsky)"/>
      <circle cx="336" cy="78" r="14" fill="#F6AD55"/>
      <g class="heat"><path d="M232 96 h40 M240 104 h32" stroke="#F6AD55" stroke-width="1.6" stroke-linecap="round" fill="none"/></g>
      <!-- cactus -->
      <g fill="#4F9E7B">
        <rect x="244" y="112" width="7" height="30" rx="3.5"/>
        <rect x="238" y="118" width="6" height="12" rx="3"/>
        <rect x="251" y="122" width="6" height="10" rx="3"/>
      </g>
      <!-- ground + road -->
      <rect x="224" y="150" width="140" height="36" fill="#202A44"/>
      <path class="dash" d="M228 168 H364" stroke="#F6AD55" stroke-width="4" fill="none"/>
      <!-- car -->
      <g class="car">
        <path d="M290 150 l8 -10 h22 l8 10 z" fill="#B794F6"/>
        <rect x="282" y="149" width="52" height="12" rx="5" fill="#4FD1C5"/>
        <circle cx="296" cy="162" r="5" fill="#0F131B" stroke="#7C8798" stroke-width="1.5"/>
        <circle cx="322" cy="162" r="5" fill="#0F131B" stroke="#7C8798" stroke-width="1.5"/>
      </g>
      <circle class="dust"   cx="280" cy="160" r="3" fill="#7C8798"/>
      <circle class="dust b" cx="278" cy="156" r="2.2" fill="#7C8798"/>
      <circle class="dust c" cx="281" cy="163" r="1.8" fill="#7C8798"/>
      <text class="score" x="232" y="62" font-size="10" fill="#F1F5FB" font-family="'SFMono-Regular',Consolas,monospace">HI-SCORE 9999</text>
    </g>
    <rect x=".75" y=".75" width="378.5" height="208.5" rx="12" fill="none" stroke="#2B3648" stroke-width="1.5"/>
  </g>
</svg>
